<svg width="115" height="16" viewBox="0 0 115 16" fill="none" xmlns="http://www.w3.org/2000/svg">
<path d="M0 4.5255V3.16538H9.47868V4.5255H5.50455V15.8269H3.97414V4.5255H0Z" fill="black"/>
<path d="M11.8406 15.8269V3.16538H19.468V4.5255H13.3711V8.80371H19.0731V10.1638H13.3711V14.4668H19.5668V15.8269H11.8406Z" fill="black"/>
<path d="M31.6805 3.16538V15.8269H30.1501V4.5255H23.7816V15.8269H22.2511V3.16538H31.6805Z" fill="black"/>
<path d="M33.6814 15.8269V14.4173H34.0517C34.5783 14.4173 34.9876 14.2483 35.2797 13.9104C35.5718 13.5724 35.7816 13.0263 35.9092 12.272C36.0408 11.5178 36.1293 10.5183 36.1745 9.27357L36.3967 3.16538H44.0981V15.8269H42.5677V4.5255H37.853L37.6555 9.57032C37.6062 10.8975 37.4848 12.0268 37.2915 12.9583C37.0981 13.8897 36.7587 14.6007 36.2732 15.0912C35.7878 15.5817 35.0802 15.8269 34.1504 15.8269H33.6814Z" fill="black"/>
<path d="M48.2913 8.48223H51.8952C52.8003 8.48223 53.5634 8.6306 54.1846 8.92736C54.81 9.22411 55.2831 9.64245 55.604 10.1824C55.929 10.7223 56.0915 11.3591 56.0915 12.0927C56.0915 12.8264 55.929 13.4735 55.604 14.034C55.2831 14.5945 54.81 15.0335 54.1846 15.3509C53.5634 15.6682 52.8003 15.8269 51.8952 15.8269H47.1558V3.16538H48.6862V14.4915H51.8952C52.4711 14.4915 52.9586 14.3761 53.3577 14.1453C53.7609 13.9104 54.0653 13.6095 54.271 13.2427C54.4808 12.8717 54.5857 12.4802 54.5857 12.068C54.5857 11.4621 54.3533 10.9408 53.8884 10.5039C53.4235 10.0629 52.7591 9.84235 51.8952 9.84235H48.2913V8.48223ZM58.8561 3.16538V15.8269H57.3257V3.16538H58.8561Z" fill="black"/>
<path d="M61.92 3.16538H63.4257V13.1314H63.5491L70.4607 3.16538H71.9417V15.8269H70.4113V5.88563H70.2879L63.401 15.8269H61.92V3.16538ZM68.1404 0H69.498C69.498 0.667697 69.2676 1.21381 68.8068 1.63833C68.3461 2.06285 67.7207 2.27512 66.9309 2.27512C66.1533 2.27512 65.5342 2.06285 65.0734 1.63833C64.6167 1.21381 64.3884 0.667697 64.3884 0H65.746C65.746 0.321484 65.8345 0.603813 66.0114 0.846986C66.1924 1.09016 66.4989 1.21175 66.9309 1.21175C67.3628 1.21175 67.6714 1.09016 67.8565 0.846986C68.0458 0.603813 68.1404 0.321484 68.1404 0Z" fill="black"/>
<path d="M89.3455 3.16538V15.8269H87.8151V4.5255H81.4466V15.8269H79.9162V3.16538H89.3455Z" fill="black"/>
<path d="M103.096 9.49614C103.096 10.8315 102.855 11.9856 102.374 12.9583C101.893 13.931 101.232 14.6811 100.393 15.2087C99.5539 15.7362 98.5954 16 97.5175 16C96.4396 16 95.4811 15.7362 94.6418 15.2087C93.8026 14.6811 93.1423 13.931 92.6609 12.9583C92.1796 11.9856 91.9389 10.8315 91.9389 9.49614C91.9389 8.16074 92.1796 7.0067 92.6609 6.034C93.1423 5.06131 93.8026 4.31118 94.6418 3.78362C95.4811 3.25605 96.4396 2.99227 97.5175 2.99227C98.5954 2.99227 99.5539 3.25605 100.393 3.78362C101.232 4.31118 101.893 5.06131 102.374 6.034C102.855 7.0067 103.096 8.16074 103.096 9.49614ZM101.615 9.49614C101.615 8.39979 101.432 7.4745 101.066 6.72025C100.704 5.966 100.212 5.39516 99.591 5.00773C98.9739 4.6203 98.2827 4.42658 97.5175 4.42658C96.7523 4.42658 96.0591 4.6203 95.4379 5.00773C94.8208 5.39516 94.3292 5.966 93.963 6.72025C93.601 7.4745 93.42 8.39979 93.42 9.49614C93.42 10.5925 93.601 11.5178 93.963 12.272C94.3292 13.0263 94.8208 13.5971 95.4379 13.9845C96.0591 14.372 96.7523 14.5657 97.5175 14.5657C98.2827 14.5657 98.9739 14.372 99.591 13.9845C100.212 13.5971 100.704 13.0263 101.066 12.272C101.432 11.5178 101.615 10.5925 101.615 9.49614Z" fill="black"/>
<path d="M104.583 15.8269V14.4173H104.954C105.48 14.4173 105.89 14.2483 106.182 13.9104C106.474 13.5724 106.684 13.0263 106.811 12.272C106.943 11.5178 107.031 10.5183 107.076 9.27357L107.299 3.16538H115V15.8269H113.47V4.5255H108.755L108.557 9.57032C108.508 10.8975 108.387 12.0268 108.193 12.9583C108 13.8897 107.661 14.6007 107.175 15.0912C106.69 15.5817 105.982 15.8269 105.052 15.8269H104.583Z" fill="black"/>
</svg>
